<svg xmlns="http://www.w3.org/2000/svg" viewBox="-0.665 -0.665 16 16" fill="none" stroke="#000000" stroke-linecap="round" stroke-linejoin="round" height="20" width="20"><path d="m 8.5575,12.225048 c 0,0.672375 0.550125,1.2225 1.2225,1.2225" stroke-width="1.33" /><path d="m 12.225,13.447548 c 0.672375,0 1.2225,-0.550125 1.2225,-1.2225" stroke-width="1.33" /><path d="m 13.4475,9.7800482 c 0,-0.672375 -0.550125,-1.2225 -1.2225,-1.2225" stroke-width="1.33" /><path d="m 9.78,8.5575482 c -0.672375,0 -1.2225,0.550125 -1.2225,1.2225" stroke-width="1.33" /><path d="M 1.83375,10.391298 3.6675,8.5575482 5.50125,10.391298" stroke-width="1.33" /><path d="m 3.6675,8.5575482 v 3.0562498 c 0,1.039125 0.794625,1.83375 1.83375,1.83375 H 6.1125" stroke-width="1.33" /><path d="M 2.445,6.1125482 H 4.89 c 0,0 1.2225,0 1.2225,-1.2225 V 2.4450481 c 0,0 0,-1.2225 -1.2225,-1.2225 H 2.445 c 0,0 -1.2225,0 -1.2225,1.2225 v 2.4450001 c 0,0 0,1.2225 1.2225,1.2225" stroke-width="1.33" /></svg>