<svg viewBox="0 0 24 24" fill="none" xmlns="http://www.w3.org/2000/svg" height="24" width="24"><g><path d="M9.8 19c-1.58335 0 -2.94585 -0.53335 -4.0875 -1.6C4.570835 16.33335 4 15.01665 4 13.45s0.570835 -2.88335 1.7125 -3.95c1.14165 -1.06665 2.50415 -1.6 4.0875 -1.6h7.35l-2.85 -2.85L15.35 4l4.65 4.65 -4.65 4.65 -1.05 -1.05 2.85 -2.85H9.775c-1.16665 0 -2.17085 0.3875 -3.0125 1.1625C5.92085 11.3375 5.5 12.3 5.5 13.45c0 1.15 0.42085 2.1125 1.2625 2.8875C7.60415 17.1125 8.60835 17.5 9.775 17.5h7.75v1.5H9.8Z" fill="#000000" stroke-width="0.5"></path></g></svg>