<svg xmlns="http://www.w3.org/2000/svg" fill="none" viewBox="0 0 24 24" height="24" width="24"><path style="fill:#000000;stroke-width:0.5" d="m 8,20 -2.15,2.15 1.075,1.075 4,-4 -4,-4 L 5.85,16.3 8,18.5 M 8,20 C 6.05,20 4.395835,19.32085 3.0375,17.9625 1.679165,16.60415 1,14.95 1,13 1,11.03335 1.695835,9.3875 3.0875,8.0625 4.479165,6.7375 6.14165,6.125 8.075,6.225 L 5.925,4.075 7,3 11,7 7,11 5.925,9.925 8.15,7.7 C 6.61665,7.66665 5.29165,8.1625 4.175,9.1875 3.058335,10.2125 2.5,11.48335 2.5,13 c 0,1.53335 0.533335,2.83335 1.6,3.9 1.06665,1.06665 2.36665,1.6 3.9,1.6 z m 5,-9 V 4 h 9 v 7 z m 0,9 v -7 h 9 v 7 z m 1.5,-1.5 h 6 v -4 h -6 z" /></svg>