<svg viewBox="0 0 24 24" fill="none" xmlns="http://www.w3.org/2000/svg" height="24" width="24"><g><path d="M6.475 19v-1.5h7.75c1.16665 0 2.17085 -0.3875 3.0125 -1.1625C18.07915 15.5625 18.5 14.6 18.5 13.45c0 -1.15 -0.42085 -2.1125 -1.2625 -2.8875 -0.84165 -0.775 -1.84585 -1.1625 -3.0125 -1.1625H6.85l2.85 2.85 -1.05 1.05L4 8.65 8.65 4l1.05 1.05 -2.85 2.85h7.35c1.58335 0 2.94585 0.53335 4.0875 1.6C19.42915 10.56665 20 11.88335 20 13.45s-0.57085 2.88335 -1.7125 3.95C17.14585 18.46665 15.78335 19 14.2 19H6.475Z" fill="#000000" stroke-width="0.5"></path></g></svg>