<svg xmlns="http://www.w3.org/2000/svg" viewBox="0 0 16 16" height="16" width="16"><defs></defs><path d="m9 6 -2 0 0 -2 -1 0 0 2 -2 0 0 1 2 0 0 2 1 0 0 -2 2 0 0 -1z" fill="#000000" stroke-width="0.5"></path><path d="M10.72395 10A5.428 5.428 0 0 0 12 6.5a5.5 5.5 0 1 0 -5.5 5.5 5.428 5.428 0 0 0 3.5 -1.27605L13.79295 14.5 14.5 13.79295ZM6.5 11a4.5 4.5 0 1 1 4.5 -4.5 4.505 4.505 0 0 1 -4.5 4.5Z" fill="#000000" stroke-width="0.5"></path><path d="M0 0h16v16H0Z" fill="none" stroke-width="0.5"></path></svg>